<?xml version="1.0" encoding="utf-8"?>
<!-- Generator: Adobe Illustrator 26.0.2, SVG Export Plug-In . SVG Version: 6.00 Build 0)  -->
<svg version="1.1" id="Layer_1" xmlns="http://www.w3.org/2000/svg" xmlns:xlink="http://www.w3.org/1999/xlink" x="0px" y="0px"
	 viewBox="0 0 184 69" style="enable-background:new 0 0 184 69;" xml:space="preserve">
<style type="text/css">
	.st0{enable-background:new    ;}
	.st1{fill:#B88941;}
	.st2{fill:none;stroke:#B88941;stroke-width:0.5;}
</style>
<g class="st0">
	<path class="st1" d="M32,21.1l-0.1,1.8c0,2.4,1.3,3.6,3.9,3.6c2.1,0,4.3-0.7,6.4-2.2c2.2-1.5,3.2-3,3.2-4.5c0-1.5-0.9-2.8-2.6-3.8
		c-1.2-0.7-3-1-5.5-1c-3.7,0-7.8,0.9-12.4,2.6C20.3,19.3,16,22.1,12,26c-5.2,5.1-7.9,9.8-7.9,14.1c0,2.5,1,4.6,2.9,6.1
		c1.9,1.5,4.4,2.3,7.6,2.3c4.3,0,9.4-1.6,15.1-4.9c4.8-2.7,8.3-5.5,10.7-8.5l1.6-2.4c-0.7,0-3.4,0.2-8.2,0.6
		c-4.8,0.4-7.6,0.7-8.2,0.8c-0.7,0.2-1.3,0.2-1.7,0.2c-1.2,0-1.8-0.3-1.8-0.9c0-0.9,1.4-1.7,4.2-2.3c2.8-0.6,7.5-0.9,14.1-0.9
		c6.6,0,11,0.3,13.1,0.8c0.3,0.1,0.5,0.2,0.5,0.3c0,0.4-1.3,0.7-3.8,0.9c-3.2,0.3-4.8,0.4-4.8,0.4c-3.7,4.9-8.6,12.5-14.5,22.8
		c-0.3,0.6-0.7,0.9-1,0.9c-0.3,0-0.5-0.2-0.5-0.7c0-1.3,1-3.8,3.1-7.4l3.9-7.2c-2.3,2-5.3,3.9-9,5.7C22.6,48.9,18.2,50,14,50
		c-4.2,0-7.4-0.9-9.6-2.7C2.1,45.5,1,43,1,40c0-5.6,3.4-11.3,10.2-17.1c3.4-2.9,7.5-5.4,12.4-7.3c4.8-1.9,9.1-2.9,12.7-2.9
		c3.6,0,6.4,0.7,8.4,2.1c1.5,1.2,2.3,2.5,2.3,4c0,2.1-1.3,4.1-3.9,6s-5.1,2.9-7.7,2.9c-3.4,0-5.1-2-5.1-5.9c0-1.5,0.3-2.3,0.9-2.3
		C31.7,19.5,32,20.1,32,21.1z"/>
	<path class="st1" d="M58.6,48.1c-2.8,0-4.1-1.5-4.1-4.6c0-1.5,0.4-3.2,1.2-5.1c0.8-1.8,1.7-3.4,2.6-4.6c-0.2,0-0.4,0.1-0.7,0.1
		c-0.9,0-1.6-0.6-2.2-1.9l-4.1,5.3c-2.3,2.8-3.6,4.2-4,4.2c-0.2,0-0.3-0.1-0.3-0.2c0-0.4,0.3-0.9,0.9-1.6c3.2-3.7,5.4-6.8,6.8-9.4
		c0.8-3.2,1.9-4.8,3.2-4.8c0.8,0,1.3,0.4,1.3,1.1s-0.5,1.7-1.4,2.8l-1.3,1.8c0,0.8,0.6,1.2,1.7,1.2c0.7,0,1.4-0.2,2.2-0.7l1.4-0.9
		c0.1,0,0.3-0.1,0.5-0.1c0.3,0,0.6,0.2,0.9,0.6s0.4,0.7,0.3,1l-3.8,4.8c-2.3,3-3.5,5.4-3.5,7.1s0.8,2.6,2.4,2.6
		c1.7,0,3.8-0.9,6.2-2.7c1.5-1.1,2.8-2.3,4-3.6c1.1-1.3,1.8-2,1.9-2c0.3,0,0.4,0.1,0.4,0.4c0,0.3-0.2,0.6-0.5,1l-1.8,2
		c-1,1-2.1,2-3.3,3C62.9,47.1,60.5,48.1,58.6,48.1z"/>
	<path class="st1" d="M87.4,31.4l0.8-0.2c0.4,0,0.8,0.2,1.2,0.5c0.4,0.3,0.5,0.6,0.5,0.8s-1.1,2-3.4,5.3c-2.3,3.4-3.4,5.7-3.4,7
		c0,0.1,0,0.2,0.1,0.3c0.2,0.8,0.6,1.3,1.2,1.3c1.9,0,5.4-3.2,10.5-9.5c0.1-0.1,0.2-0.2,0.4-0.2c0.1,0,0.2,0.1,0.2,0.4
		c0,0.3-0.2,0.6-0.5,1.1c-4.7,6.3-8.3,9.4-10.7,9.4c-0.3,0-0.6-0.1-0.9-0.2c-1.6-0.6-2.4-1.8-2.4-3.6c0-0.6,0.1-1.2,0.2-1.9
		l-3.4,3.3c-2.2,1.9-3.7,2.9-4.7,2.9c-1,0-1.9-0.3-2.8-0.9c-1-0.7-1.5-1.7-1.5-2.9c0-2.7,1.9-5.9,5.6-9.6c3.7-3.7,7.2-5.6,10.3-5.6
		c1.2,0,2,0.4,2.4,1.3c0.1,0.3,0.2,0.5,0.3,0.7C87.3,31.3,87.3,31.4,87.4,31.4z M70.9,45c0,1.3,0.5,2,1.4,2c2.1,0,5-2.3,8.7-7l5.8-8
		c-0.3-0.5-0.8-0.8-1.4-0.8c-2.2,0-5.2,1.7-8.9,5.2C72.8,39.8,70.9,42.7,70.9,45z"/>
	<path class="st1" d="M95.9,48.6c-0.4,0-0.8-0.1-1.1-0.2c-2.3-0.7-3.5-2-3.5-4c0-2.6,1.6-5.5,4.8-8.9c3.2-3.4,6.1-5.1,8.7-5.1
		c0.8,0,1.5,0.2,2.1,0.7c0.5,0.5,0.8,1.1,0.8,1.9c0,0.8-0.2,1.6-0.7,2.5c-0.5,0.9-1.2,1.3-2.1,1.3c-1,0-1.4-0.3-1.4-0.9
		c0-0.4,0.2-1,0.7-1.8c0.5-0.8,0.7-1.3,0.7-1.3s-0.1-0.1-0.2-0.1c-1,0.1-2.4,0.8-4.2,2.2c-1.8,1.4-3,2.5-3.7,3.4l-2.1,3.1
		c-0.4,0.6-0.6,1.3-0.8,2.1s-0.2,1.4-0.2,1.8c0,0.4,0.2,0.9,0.7,1.4c0.5,0.5,1.1,0.8,2,0.8c1.8,0,4.1-1.1,6.8-3.2
		c2.7-2.1,4.8-4.2,6.3-6.1c0.2-0.2,0.4-0.3,0.7-0.3c0.3,0,0.4,0.1,0.4,0.2s-0.1,0.3-0.3,0.5c-2,2.7-4.4,5-7.2,7
		C100.1,47.6,97.8,48.6,95.9,48.6z"/>
	<path class="st1" d="M109.3,48.5c-1.9,0-2.8-1.2-2.8-3.6c0-2,1.1-4.7,3.2-8.2c2.2-3.5,3.9-5.3,5.2-5.3c0.4,0,0.8,0.1,1.2,0.4
		c0.5,0.3,0.7,0.6,0.7,0.9c-0.2,0.3-0.4,0.5-0.7,0.9c-0.3,0.3-0.5,0.7-0.8,1c-0.3,0.4-0.7,0.9-1.2,1.6c-0.5,0.7-1,1.3-1.5,2
		c-2.8,3.6-4.1,6-4.1,7.3c0,1.3,0.5,2,1.4,2c0.8,0,1.8-0.4,3.1-1.3c3.1-1.9,5.5-4,7.3-6.3c0.7-0.8,1.1-1.3,1.3-1.3
		c0.2,0,0.4,0.1,0.4,0.4c0,0.3-0.4,0.9-1.3,1.8c-0.8,0.9-1.5,1.6-2,2.1c-0.5,0.5-0.8,0.9-1,1c-0.2,0.2-0.5,0.5-1,0.9
		c-0.5,0.5-0.9,0.8-1.1,1c-0.3,0.2-0.6,0.5-1.1,0.8s-0.9,0.6-1.3,0.8c-0.4,0.2-0.8,0.4-1.3,0.6C111.2,48.3,110.3,48.5,109.3,48.5z
		 M120.8,25.9c0.5,0.3,0.7,0.8,0.7,1.2s-0.2,0.9-0.7,1.2c-0.5,0.3-1,0.5-1.5,0.5c-0.5,0-1.1-0.2-1.5-0.6c-0.5-0.4-0.7-0.9-0.7-1.4
		c0-1,0.7-1.5,2.1-1.5C119.8,25.4,120.3,25.6,120.8,25.9z"/>
	<path class="st1" d="M138,31.4l0.8-0.2c0.4,0,0.8,0.2,1.2,0.5c0.4,0.3,0.5,0.6,0.5,0.8s-1.1,2-3.4,5.3c-2.3,3.4-3.4,5.7-3.4,7
		c0,0.1,0,0.2,0.1,0.3c0.2,0.8,0.6,1.3,1.2,1.3c1.9,0,5.4-3.2,10.5-9.5c0.1-0.1,0.2-0.2,0.4-0.2c0.1,0,0.2,0.1,0.2,0.4
		c0,0.3-0.2,0.6-0.5,1.1c-4.7,6.3-8.3,9.4-10.7,9.4c-0.3,0-0.6-0.1-0.9-0.2c-1.6-0.6-2.4-1.8-2.4-3.6c0-0.6,0.1-1.2,0.2-1.9
		l-3.4,3.3c-2.2,1.9-3.7,2.9-4.7,2.9c-1,0-1.9-0.3-2.8-0.9c-1-0.7-1.5-1.7-1.5-2.9c0-2.7,1.9-5.9,5.6-9.6c3.7-3.7,7.2-5.6,10.3-5.6
		c1.2,0,2,0.4,2.4,1.3c0.1,0.3,0.2,0.5,0.3,0.7C137.9,31.3,138,31.4,138,31.4z M121.6,45c0,1.3,0.5,2,1.4,2c2.1,0,5-2.3,8.7-7l5.8-8
		c-0.3-0.5-0.8-0.8-1.4-0.8c-2.2,0-5.2,1.7-8.9,5.2C123.4,39.8,121.6,42.7,121.6,45z"/>
	<path class="st1" d="M152.5,47c-1.1,0.6-2.4,0.9-3.9,0.9c-1.6,0-2.8-0.5-3.6-1.5c-0.8-1-1.5-2.7-2.1-4.9c-0.7,0.7-1.1,1-1.4,1
		c-0.2,0-0.3-0.1-0.3-0.4s0.1-0.5,0.3-0.7c1.2-1.5,3.3-3.7,6.2-6.5l6.9-6.5c2-1.9,3.2-2.8,3.5-2.8c1.2,0,1.8,0.4,1.8,1.3
		c0,0.4-0.2,0.9-0.5,1.3c-0.3,0.4-0.6,0.8-0.8,1c-0.2,0.2-0.3,0.5-0.5,0.7c-0.7,1.1-1.3,3.5-2,7c-0.7,3.6-1.2,6-1.6,7.4
		c3,0,6.2-2,9.4-5.9c0.4-0.4,0.6-0.6,0.8-0.6c0.2,0,0.3,0.1,0.3,0.4c0,0.2-0.2,0.6-0.5,1c-2.1,2.5-4.1,4.2-5.9,5.2
		c-1.1,0.6-2.5,1-4.3,1.4L152.5,47z M145.1,40.9c0,1.2,0.4,2.3,1.2,3.1c0.8,0.8,1.8,1.2,2.8,1.2c1,0,1.8-0.2,2.4-0.6
		c0.7-0.4,1.5-2.1,2.2-5.1c0.7-3,1.1-5.6,1.3-7.9l0.2-1.9c-2,1.5-4.2,3.4-6.5,5.8c-2.3,2.4-3.5,4-3.5,4.7
		C145.1,40.5,145.1,40.8,145.1,40.9z"/>
	<path class="st1" d="M170,44.8c0.5,0.3,0.7,0.8,0.7,1.2c0,0.5-0.2,0.9-0.7,1.2c-0.5,0.3-1,0.5-1.5,0.5c-0.6,0-1.1-0.2-1.5-0.6
		c-0.5-0.4-0.7-0.9-0.7-1.4c0-1,0.7-1.5,2.1-1.5C169.1,44.2,169.6,44.4,170,44.8z M169.8,41.4c-0.3,0-0.3-0.3-0.2-1
		c0.4-2.5,2.1-6,5.1-10.5c3-4.5,5-6.7,6-6.7c0.4,0,0.9,0.1,1.5,0.2c0.5,0.2,0.8,0.4,0.8,0.7c0,0.1-0.1,0.2-0.2,0.4
		c-1.5,1.6-3.8,4.4-6.8,8.3c-3,3.9-4.7,6.4-5.1,7.2C170.5,41,170.1,41.4,169.8,41.4z"/>
</g>
<g class="st0">
	<path class="st2" d="M32,21.1l-0.1,1.8c0,2.4,1.3,3.6,3.9,3.6c2.1,0,4.3-0.7,6.4-2.2c2.2-1.5,3.2-3,3.2-4.5c0-1.5-0.9-2.8-2.6-3.8
		c-1.2-0.7-3-1-5.5-1c-3.7,0-7.8,0.9-12.4,2.6C20.3,19.3,16,22.1,12,26c-5.2,5.1-7.9,9.8-7.9,14.1c0,2.5,1,4.6,2.9,6.1
		c1.9,1.5,4.4,2.3,7.6,2.3c4.3,0,9.4-1.6,15.1-4.9c4.8-2.7,8.3-5.5,10.7-8.5l1.6-2.4c-0.7,0-3.4,0.2-8.2,0.6
		c-4.8,0.4-7.6,0.7-8.2,0.8c-0.7,0.2-1.3,0.2-1.7,0.2c-1.2,0-1.8-0.3-1.8-0.9c0-0.9,1.4-1.7,4.2-2.3c2.8-0.6,7.5-0.9,14.1-0.9
		c6.6,0,11,0.3,13.1,0.8c0.3,0.1,0.5,0.2,0.5,0.3c0,0.4-1.3,0.7-3.8,0.9c-3.2,0.3-4.8,0.4-4.8,0.4c-3.7,4.9-8.6,12.5-14.5,22.8
		c-0.3,0.6-0.7,0.9-1,0.9c-0.3,0-0.5-0.2-0.5-0.7c0-1.3,1-3.8,3.1-7.4l3.9-7.2c-2.3,2-5.3,3.9-9,5.7C22.6,48.9,18.2,50,14,50
		c-4.2,0-7.4-0.9-9.6-2.7C2.1,45.5,1,43,1,40c0-5.6,3.4-11.3,10.2-17.1c3.4-2.9,7.5-5.4,12.4-7.3c4.8-1.9,9.1-2.9,12.7-2.9
		c3.6,0,6.4,0.7,8.4,2.1c1.5,1.2,2.3,2.5,2.3,4c0,2.1-1.3,4.1-3.9,6s-5.1,2.9-7.7,2.9c-3.4,0-5.1-2-5.1-5.9c0-1.5,0.3-2.3,0.9-2.3
		C31.7,19.5,32,20.1,32,21.1z"/>
	<path class="st2" d="M58.6,48.1c-2.8,0-4.1-1.5-4.1-4.6c0-1.5,0.4-3.2,1.2-5.1c0.8-1.8,1.7-3.4,2.6-4.6c-0.2,0-0.4,0.1-0.7,0.1
		c-0.9,0-1.6-0.6-2.2-1.9l-4.1,5.3c-2.3,2.8-3.6,4.2-4,4.2c-0.2,0-0.3-0.1-0.3-0.2c0-0.4,0.3-0.9,0.9-1.6c3.2-3.7,5.4-6.8,6.8-9.4
		c0.8-3.2,1.9-4.8,3.2-4.8c0.8,0,1.3,0.4,1.3,1.1s-0.5,1.7-1.4,2.8l-1.3,1.8c0,0.8,0.6,1.2,1.7,1.2c0.7,0,1.4-0.2,2.2-0.7l1.4-0.9
		c0.1,0,0.3-0.1,0.5-0.1c0.3,0,0.6,0.2,0.9,0.6s0.4,0.7,0.3,1l-3.8,4.8c-2.3,3-3.5,5.4-3.5,7.1s0.8,2.6,2.4,2.6
		c1.7,0,3.8-0.9,6.2-2.7c1.5-1.1,2.8-2.3,4-3.6c1.1-1.3,1.8-2,1.9-2c0.3,0,0.4,0.1,0.4,0.4c0,0.3-0.2,0.6-0.5,1l-1.8,2
		c-1,1-2.1,2-3.3,3C62.9,47.1,60.5,48.1,58.6,48.1z"/>
	<path class="st2" d="M87.4,31.4l0.8-0.2c0.4,0,0.8,0.2,1.2,0.5c0.4,0.3,0.5,0.6,0.5,0.8s-1.1,2-3.4,5.3c-2.3,3.4-3.4,5.7-3.4,7
		c0,0.1,0,0.2,0.1,0.3c0.2,0.8,0.6,1.3,1.2,1.3c1.9,0,5.4-3.2,10.5-9.5c0.1-0.1,0.2-0.2,0.4-0.2c0.1,0,0.2,0.1,0.2,0.4
		c0,0.3-0.2,0.6-0.5,1.1c-4.7,6.3-8.3,9.4-10.7,9.4c-0.3,0-0.6-0.1-0.9-0.2c-1.6-0.6-2.4-1.8-2.4-3.6c0-0.6,0.1-1.2,0.2-1.9
		l-3.4,3.3c-2.2,1.9-3.7,2.9-4.7,2.9c-1,0-1.9-0.3-2.8-0.9c-1-0.7-1.5-1.7-1.5-2.9c0-2.7,1.9-5.9,5.6-9.6c3.7-3.7,7.2-5.6,10.3-5.6
		c1.2,0,2,0.4,2.4,1.3c0.1,0.3,0.2,0.5,0.3,0.7C87.3,31.3,87.3,31.4,87.4,31.4z M70.9,45c0,1.3,0.5,2,1.4,2c2.1,0,5-2.3,8.7-7l5.8-8
		c-0.3-0.5-0.8-0.8-1.4-0.8c-2.2,0-5.2,1.7-8.9,5.2C72.8,39.8,70.9,42.7,70.9,45z"/>
	<path class="st2" d="M95.9,48.6c-0.4,0-0.8-0.1-1.1-0.2c-2.3-0.7-3.5-2-3.5-4c0-2.6,1.6-5.5,4.8-8.9c3.2-3.4,6.1-5.1,8.7-5.1
		c0.8,0,1.5,0.2,2.1,0.7c0.5,0.5,0.8,1.1,0.8,1.9c0,0.8-0.2,1.6-0.7,2.5c-0.5,0.9-1.2,1.3-2.1,1.3c-1,0-1.4-0.3-1.4-0.9
		c0-0.4,0.2-1,0.7-1.8c0.5-0.8,0.7-1.3,0.7-1.3s-0.1-0.1-0.2-0.1c-1,0.1-2.4,0.8-4.2,2.2c-1.8,1.4-3,2.5-3.7,3.4l-2.1,3.1
		c-0.4,0.6-0.6,1.3-0.8,2.1s-0.2,1.4-0.2,1.8c0,0.4,0.2,0.9,0.7,1.4c0.5,0.5,1.1,0.8,2,0.8c1.8,0,4.1-1.1,6.8-3.2
		c2.7-2.1,4.8-4.2,6.3-6.1c0.2-0.2,0.4-0.3,0.7-0.3c0.3,0,0.4,0.1,0.4,0.2s-0.1,0.3-0.3,0.5c-2,2.7-4.4,5-7.2,7
		C100.1,47.6,97.8,48.6,95.9,48.6z"/>
	<path class="st2" d="M109.3,48.5c-1.9,0-2.8-1.2-2.8-3.6c0-2,1.1-4.7,3.2-8.2c2.2-3.5,3.9-5.3,5.2-5.3c0.4,0,0.8,0.1,1.2,0.4
		c0.5,0.3,0.7,0.6,0.7,0.9c-0.2,0.3-0.4,0.5-0.7,0.9c-0.3,0.3-0.5,0.7-0.8,1c-0.3,0.4-0.7,0.9-1.2,1.6c-0.5,0.7-1,1.3-1.5,2
		c-2.8,3.6-4.1,6-4.1,7.3c0,1.3,0.5,2,1.4,2c0.8,0,1.8-0.4,3.1-1.3c3.1-1.9,5.5-4,7.3-6.3c0.7-0.8,1.1-1.3,1.3-1.3
		c0.2,0,0.4,0.1,0.4,0.4c0,0.3-0.4,0.9-1.3,1.8c-0.8,0.9-1.5,1.6-2,2.1c-0.5,0.5-0.8,0.9-1,1c-0.2,0.2-0.5,0.5-1,0.9
		c-0.5,0.5-0.9,0.8-1.1,1c-0.3,0.2-0.6,0.5-1.1,0.8s-0.9,0.6-1.3,0.8c-0.4,0.2-0.8,0.4-1.3,0.6C111.2,48.3,110.3,48.5,109.3,48.5z
		 M120.8,25.9c0.5,0.3,0.7,0.8,0.7,1.2s-0.2,0.9-0.7,1.2c-0.5,0.3-1,0.5-1.5,0.5c-0.5,0-1.1-0.2-1.5-0.6c-0.5-0.4-0.7-0.9-0.7-1.4
		c0-1,0.7-1.5,2.1-1.5C119.8,25.4,120.3,25.6,120.8,25.9z"/>
	<path class="st2" d="M138,31.4l0.8-0.2c0.4,0,0.8,0.2,1.2,0.5c0.4,0.3,0.5,0.6,0.5,0.8s-1.1,2-3.4,5.3c-2.3,3.4-3.4,5.7-3.4,7
		c0,0.1,0,0.2,0.1,0.3c0.2,0.8,0.6,1.3,1.2,1.3c1.9,0,5.4-3.2,10.5-9.5c0.1-0.1,0.2-0.2,0.4-0.2c0.1,0,0.2,0.1,0.2,0.4
		c0,0.3-0.2,0.6-0.5,1.1c-4.7,6.3-8.3,9.4-10.7,9.4c-0.3,0-0.6-0.1-0.9-0.2c-1.6-0.6-2.4-1.8-2.4-3.6c0-0.6,0.1-1.2,0.2-1.9
		l-3.4,3.3c-2.2,1.9-3.7,2.9-4.7,2.9c-1,0-1.9-0.3-2.8-0.9c-1-0.7-1.5-1.7-1.5-2.9c0-2.7,1.9-5.9,5.6-9.6c3.7-3.7,7.2-5.6,10.3-5.6
		c1.2,0,2,0.4,2.4,1.3c0.1,0.3,0.2,0.5,0.3,0.7C137.9,31.3,138,31.4,138,31.4z M121.6,45c0,1.3,0.5,2,1.4,2c2.1,0,5-2.3,8.7-7l5.8-8
		c-0.3-0.5-0.8-0.8-1.4-0.8c-2.2,0-5.2,1.7-8.9,5.2C123.4,39.8,121.6,42.7,121.6,45z"/>
	<path class="st2" d="M152.5,47c-1.1,0.6-2.4,0.9-3.9,0.9c-1.6,0-2.8-0.5-3.6-1.5c-0.8-1-1.5-2.7-2.1-4.9c-0.7,0.7-1.1,1-1.4,1
		c-0.2,0-0.3-0.1-0.3-0.4s0.1-0.5,0.3-0.7c1.2-1.5,3.3-3.7,6.2-6.5l6.9-6.5c2-1.9,3.2-2.8,3.5-2.8c1.2,0,1.8,0.4,1.8,1.3
		c0,0.4-0.2,0.9-0.5,1.3c-0.3,0.4-0.6,0.8-0.8,1c-0.2,0.2-0.3,0.5-0.5,0.7c-0.7,1.1-1.3,3.5-2,7c-0.7,3.6-1.2,6-1.6,7.4
		c3,0,6.2-2,9.4-5.9c0.4-0.4,0.6-0.6,0.8-0.6c0.2,0,0.3,0.1,0.3,0.4c0,0.2-0.2,0.6-0.5,1c-2.1,2.5-4.1,4.2-5.9,5.2
		c-1.1,0.6-2.5,1-4.3,1.4L152.5,47z M145.1,40.9c0,1.2,0.4,2.3,1.2,3.1c0.8,0.8,1.8,1.2,2.8,1.2c1,0,1.8-0.2,2.4-0.6
		c0.7-0.4,1.5-2.1,2.2-5.1c0.7-3,1.1-5.6,1.3-7.9l0.2-1.9c-2,1.5-4.2,3.4-6.5,5.8c-2.3,2.4-3.5,4-3.5,4.7
		C145.1,40.5,145.1,40.8,145.1,40.9z"/>
	<path class="st2" d="M170,44.8c0.5,0.3,0.7,0.8,0.7,1.2c0,0.5-0.2,0.9-0.7,1.2c-0.5,0.3-1,0.5-1.5,0.5c-0.6,0-1.1-0.2-1.5-0.6
		c-0.5-0.4-0.7-0.9-0.7-1.4c0-1,0.7-1.5,2.1-1.5C169.1,44.2,169.6,44.4,170,44.8z M169.8,41.4c-0.3,0-0.3-0.3-0.2-1
		c0.4-2.5,2.1-6,5.1-10.5c3-4.5,5-6.7,6-6.7c0.4,0,0.9,0.1,1.5,0.2c0.5,0.2,0.8,0.4,0.8,0.7c0,0.1-0.1,0.2-0.2,0.4
		c-1.5,1.6-3.8,4.4-6.8,8.3c-3,3.9-4.7,6.4-5.1,7.2C170.5,41,170.1,41.4,169.8,41.4z"/>
</g>
</svg>
