<svg xmlns="http://www.w3.org/2000/svg" width="144.7" height="52.837" viewBox="0 0 144.7 52.837">
  <g id="Group_15" data-name="Group 15" transform="translate(-1093 -1948.623)">
    <path id="Path_1" data-name="Path 1" d="M7.547,110.2h4.544l-2.85,7.642H7.547Z" transform="translate(1097.816 1839.487)" fill="#050605"/>
    <g id="Group_2" data-name="Group 2" transform="translate(1093 1948.623)">
      <g id="Group_12" data-name="Group 12">
        <path id="Path_2" data-name="Path 2" d="M30.443,147.495V117.957l6.032-.9v4.241h.118c1.823-2.939,5.652-4.241,9.413-4.241,6.467,0,12.488,2.78,12.488,9.962V146.6l-6.02.894v-20.03c0-4.24-3.329-5.607-7.029-5.607-4.767,0-8.969,2.61-8.969,8.774V146.6Z" transform="translate(19.427 -104.76)" fill="#050605"/>
        <path id="Path_3" data-name="Path 3" d="M54.02,148.044c2.266,3.217,4.834,5.149,9.216,5.149,4.52,0,8.484-2.377,8.484-6.4,0-5.032-4.217-7.242-8.484-7.242a15.048,15.048,0,0,0-7.711,2.1l1.132-4.028c-4.9-1.469-6.9-5.034-6.9-9.444,0-6.736,6.464-9.908,11.734-10.13a88.518,88.518,0,0,0,9.1-.624,50.1,50.1,0,0,0,7.095-1.928l-1.386,5.332-3.761.835a7.39,7.39,0,0,1,4.013,6.908c0,3.907-2.446,7.019-6.584,8.314V137c4.833,1.535,7.78,4.928,7.78,9.626,0,7.522-7.157,11.374-14.5,11.374-6.207,0-10.288-2.487-13.674-6.788Zm16.495-19.473c0-3.843-3.2-5.942-7.278-5.942-3.881,0-7.454,1.985-7.454,5.942,0,3.853,2.693,6.4,7.454,6.4,3.966,0,7.278-2.493,7.278-6.4" transform="translate(31.629 -105.755)" fill="#050605"/>
        <path id="Path_4" data-name="Path 4" d="M54.02,148.044c2.266,3.217,4.834,5.149,9.216,5.149,4.52,0,8.484-2.377,8.484-6.4,0-5.032-4.217-7.242-8.484-7.242a15.048,15.048,0,0,0-7.711,2.1l1.132-4.028c-4.9-1.469-6.9-5.034-6.9-9.444,0-6.736,6.464-9.908,11.734-10.13a88.518,88.518,0,0,0,9.1-.624,50.1,50.1,0,0,0,7.095-1.928l-1.386,5.332-3.761.835a7.39,7.39,0,0,1,4.013,6.908c0,3.907-2.446,7.019-6.584,8.314V137c4.833,1.535,7.78,4.928,7.78,9.626,0,7.522-7.157,11.374-14.5,11.374-6.207,0-10.288-2.487-13.674-6.788Zm16.495-19.473c0-3.843-3.2-5.942-7.278-5.942-3.881,0-7.454,1.985-7.454,5.942,0,3.853,2.693,6.4,7.454,6.4,3.966,0,7.278-2.493,7.278-6.4" transform="translate(31.629 -105.755)" fill="#050605"/>
        <path id="Path_5" data-name="Path 5" d="M75.239,137.766a10.275,10.275,0,0,0,8.72,4.638c4.326,0,8.533-2.659,11.8-4.983l1.191,5.716c-3.956,2.495-7.65,4.359-12.607,4.359-10.234,0-16.876-6.9-16.876-16.011,0-7.812,7.4-14.431,15.869-14.431,6.779,0,10.786,2.78,14.24,7.863ZM89.3,124.018a7.446,7.446,0,0,0-5.524-1.874c-6.843,0-11.044,4.983-10.289,10.922Z" transform="translate(43.054 -104.76)" fill="#050605"/>
        <path id="Path_6" data-name="Path 6" d="M32.615,142.915h-.121a11.576,11.576,0,0,1-9.287,4.21c-9.295,0-14.666-7.6-14.666-14.9,0-6.952,5.789-14.906,14.963-14.906,4.2,0,7.419,1.818,8.99,4.217h.121v-3.455l6.079-.814V146.37l-6.079.8ZM23.972,141.4a9.183,9.183,0,0,0,0-18.356,9.18,9.18,0,0,0,0,18.356" transform="translate(5.45 -104.625)" fill="#050605"/>
        <path id="Path_7" data-name="Path 7" d="M0,151.1H.016c.179,5.9,3.054,8.188,9.025,11.287l2.651-5.144-3.229-2.01c-1.782-1.135-2.477-2.388-2.477-5.9V109.549L0,110.442Z" transform="translate(0 -109.549)" fill="#050605"/>
        <path id="Path_22" data-name="Path 22" d="M87.576,111.884a3.529,3.529,0,0,1,1.684.442,3.183,3.183,0,0,1,1.263,1.253,3.535,3.535,0,0,1,.464,1.712,3.464,3.464,0,0,1-.452,1.7,3.228,3.228,0,0,1-1.26,1.253,3.381,3.381,0,0,1-3.389,0,3.169,3.169,0,0,1-1.261-1.253,3.364,3.364,0,0,1-.454-1.7,3.493,3.493,0,0,1,.459-1.712,3.212,3.212,0,0,1,1.266-1.253,3.5,3.5,0,0,1,1.681-.442m0,.667a2.814,2.814,0,0,0-1.342.352,2.558,2.558,0,0,0-1.022,1.014,2.766,2.766,0,0,0-.011,2.739,2.571,2.571,0,0,0,1.017,1.016,2.738,2.738,0,0,0,1.358.37,2.813,2.813,0,0,0,1.369-.37,2.672,2.672,0,0,0,1.014-1.016,2.792,2.792,0,0,0,.349-1.365,2.666,2.666,0,0,0-.369-1.374A2.558,2.558,0,0,0,88.93,112.9a2.9,2.9,0,0,0-1.35-.352m-1.546,4.561V113.5h.737c.69,0,1.075.008,1.157.008a1.457,1.457,0,0,1,.567.147.858.858,0,0,1,.334.341.949.949,0,0,1,.139.523.975.975,0,0,1-.254.673,1.217,1.217,0,0,1-.724.339,1.111,1.111,0,0,1,.257.134,3.623,3.623,0,0,1,.247.278c.023.034.118.183.262.442l.428.726h-.9l-.3-.58a2.513,2.513,0,0,0-.509-.747.793.793,0,0,0-.508-.157h-.192v1.484Zm.737-2.053h.3a3.829,3.829,0,0,0,.793-.046.526.526,0,0,0,.242-.174.485.485,0,0,0,.085-.275.441.441,0,0,0-.328-.441,4.279,4.279,0,0,0-.793-.048h-.3Z" transform="translate(53.714 -108.059)" fill="#050605"/>
      </g>
    </g>
  </g>
</svg>
