<?xml version="1.0" encoding="utf-8"?>
<!-- Generator: Adobe Illustrator 28.1.0, SVG Export Plug-In . SVG Version: 6.00 Build 0)  -->
<svg version="1.1" id="Layer_1" xmlns="http://www.w3.org/2000/svg" xmlns:xlink="http://www.w3.org/1999/xlink" x="0px" y="0px"
	 viewBox="0 0 297.6 113.4" style="enable-background:new 0 0 297.6 113.4;" xml:space="preserve">
<style type="text/css">
	.st0{enable-background:new    ;}
	.st1{fill:#262626;}
	.st2{fill:#B88941;}
	.st3{fill:none;stroke:#B88941;stroke-width:0.5;}
</style>
<g id="Group_10" transform="translate(-34 -254.785)">
	<g class="st0">
		<path class="st1" d="M142.7,355.3v6.3h-29.4v-5l15.8-15c3.9-3.7,4.6-6,4.6-8.3c0-3.6-2.5-5.8-7.4-5.8c-3.9,0-7.1,1.3-9.3,4.2
			l-5.2-4c3.1-4.2,8.6-6.6,15.2-6.6c8.7,0,14.2,4.4,14.2,11.4c0,3.9-1.1,7.4-6.6,12.6l-10.7,10.1H142.7z"/>
		<path class="st1" d="M146.8,341.6c0-13.1,7.2-20.5,16.6-20.5c9.5,0,16.7,7.4,16.7,20.5c0,13.1-7.2,20.5-16.7,20.5
			C154,362.1,146.8,354.7,146.8,341.6z M172.7,341.6c0-9.6-3.8-14.1-9.2-14.1c-5.4,0-9.2,4.4-9.2,14.1s3.8,14.1,9.2,14.1
			C168.9,355.7,172.7,351.2,172.7,341.6z"/>
		<path class="st1" d="M213.8,355.3v6.3h-29.4v-5l15.8-15c3.9-3.7,4.6-6,4.6-8.3c0-3.6-2.5-5.8-7.4-5.8c-3.9,0-7.1,1.3-9.3,4.2
			l-5.2-4c3.1-4.2,8.6-6.6,15.2-6.6c8.7,0,14.2,4.4,14.2,11.4c0,3.9-1.1,7.4-6.6,12.6L195,355.3H213.8z"/>
		<path class="st1" d="M246.3,349.6c0,6.7-5.1,12.5-15.8,12.5c-5.6,0-11.3-1.7-15-4.6l3.2-5.8c2.8,2.4,7.2,3.9,11.7,3.9
			c5.3,0,8.4-2.3,8.4-6c0-3.6-2.6-5.9-8.7-5.9h-3.6v-5.1l9.1-10.8h-18.1v-6.2h27.2v5l-9.7,11.5C242.5,339.1,246.3,343.6,246.3,349.6
			z"/>
	</g>
	<g class="st0">
		<path class="st1" d="M76.3,301.3l-0.1-26.4l-13.1,21.9h-3.3l-13.1-21.5v26.1h-7.1v-39.9h6.1l15.8,26.4l15.6-26.4h6.1l0.1,39.9
			H76.3z"/>
		<path class="st1" d="M93.7,283.9v-22.5h7.4v22.2c0,8.2,3.7,11.7,10.1,11.7c6.4,0,10.1-3.5,10.1-11.7v-22.2h7.3v22.5
			c0,11.6-6.6,17.9-17.4,17.9C100.3,301.8,93.7,295.5,93.7,283.9z"/>
		<path class="st1" d="M168.9,295.1v6.2H139v-39.9h29.1v6.2h-21.7V278h19.3v6.1h-19.3v11H168.9z"/>
		<path class="st1" d="M173.8,297.1l2.6-5.8c3.2,2.6,8.3,4.4,13.2,4.4c6.2,0,8.8-2.2,8.8-5.2c0-8.6-23.7-3-23.7-17.8
			c0-6.4,5.1-11.9,16.1-11.9c4.8,0,9.8,1.3,13.3,3.5l-2.3,5.8c-3.6-2.1-7.5-3.1-11-3.1c-6.2,0-8.7,2.4-8.7,5.4
			c0,8.5,23.6,3,23.6,17.6c0,6.4-5.2,11.8-16.1,11.8C183.3,301.8,177.1,299.9,173.8,297.1z"/>
		<path class="st1" d="M220.5,267.7h-13.2v-6.3h33.8v6.3h-13.2v33.6h-7.4V267.7z"/>
		<path class="st1" d="M272.8,301.3l-8.1-11.7c-0.5,0.1-1,0.1-1.5,0.1h-9v11.6h-7.4v-39.9h16.4c10.5,0,17,5.4,17,14.2
			c0,6-3.1,10.5-8.5,12.6l9.2,13.1H272.8z M262.8,267.7h-8.7v15.9h8.7c6.5,0,9.9-3,9.9-8C272.7,270.6,269.3,267.7,262.8,267.7z"/>
		<path class="st1" d="M314.2,292h-19.9l-3.9,9.2h-7.6l17.9-39.9h7.3l18,39.9h-7.7L314.2,292z M311.8,286.2l-7.5-17.4l-7.5,17.4
			H311.8z"/>
	</g>
	<g class="st0">
		<path class="st2" d="M99,309.2c3.5-5.8,6-8.6,7.4-8.6c0.2,0,0.5,0.1,0.9,0.2c0.4,0.1,0.6,0.4,0.6,0.6c0,0.2-0.1,0.4-0.2,0.6
			c-2.5,3.1-4.4,5.4-5.6,7c-3.7,4.7-5.8,8.1-6.2,10.2c-0.1,0.4-0.1,0.9-0.1,1.3c0,1.4,0.6,2.1,1.8,2.1c2.3,0,5.4-2.2,9.2-6.5
			c0.3-0.3,0.6-0.5,0.8-0.5c0.2,0,0.3,0,0.3,0.2c0,0.2-0.1,0.3-0.3,0.6c-3.7,4.4-6.9,6.9-9.8,7.4c-0.2,0-0.4,0-0.7,0
			c-1,0-1.7-0.3-2.2-1c-0.5-0.7-0.7-1.4-0.7-2.2c0-0.9,0.2-1.9,0.5-2.9l-3.8,3.8c-1.7,1.6-3.1,2.4-4.1,2.4c-1,0-1.8-0.3-2.5-0.8
			c-0.8-0.6-1.2-1.4-1.2-2.5c0-2.3,1.6-5.1,4.8-8.3c3.2-3.2,6.2-4.8,8.9-4.8c0.9,0,1.5,0.2,1.9,0.7C98.7,308.3,98.9,308.6,99,309.2z
			 M85,321.1c0,1.1,0.4,1.7,1.2,1.7c1.4,0,3.6-1.9,6.8-5.6c0.6-0.7,2.5-3.1,5.7-7.5c-0.2-0.4-0.6-0.6-1.1-0.6c-2,0-4.5,1.5-7.7,4.5
			C86.6,316.6,85,319.1,85,321.1z"/>
		<path class="st2" d="M108,324.2c-0.3,0-0.7,0-0.9-0.1c-2-0.6-3-1.7-3-3.4c0-2.2,1.4-4.8,4.2-7.7c2.8-2.9,5.3-4.4,7.5-4.4
			c0.7,0,1.3,0.2,1.8,0.6c0.5,0.4,0.7,0.9,0.7,1.4c0,1.8-1.3,3.5-4,5.1c-2.7,1.6-4.8,2.4-6.5,2.4c-0.3,0-0.5,0-0.7-0.1
			c-0.5,0.9-0.7,1.8-0.7,2.7c0,1.6,0.8,2.5,2.3,2.5c1.6,0,3.6-1.1,6.1-3.2c1.9-1.6,3.6-3.2,4.9-4.9c0.3-0.4,0.5-0.6,0.7-0.6
			c0.2,0,0.3,0.1,0.3,0.3s-0.1,0.5-0.4,0.8c-1.7,2.2-3.8,4.2-6.2,6C111.7,323.3,109.7,324.2,108,324.2z M117,310.5
			c0-0.4-0.4-0.6-1.2-0.6c-0.8,0-2,0.6-3.4,1.9c-2,1.6-3.5,3.4-4.7,5.2c0.2,0.1,0.4,0.1,0.6,0.1c1.2,0,2.8-0.6,4.8-1.9
			c2-1.3,3.3-2.7,3.8-4.2C117,310.8,117,310.7,117,310.5z"/>
		<path class="st2" d="M146.6,300.4c0,1-0.3,1.5-0.9,1.5c-0.2,0-0.3-0.1-0.5-0.4c-0.3-0.5-0.8-0.8-1.4-0.8c-1.5,0-2.8,1-4.1,3.1
			c-0.3,0.4-1,1.9-2.4,4.5h0.6c3.4,0,5.7,0,6.9-0.1c0.1,0,0.2,0.1,0.2,0.2c0,0.3-1.1,0.6-3.4,1c-2.1,0.3-3.9,0.6-5.2,0.9
			c-1,2-2.2,4.4-3.6,7.2c-2.8,5.3-4.7,8.6-5.6,9.9c-2.8,3.9-5.4,5.9-8.1,5.9c-0.9,0-1.7-0.4-2.4-1.2c-0.7-0.8-1-1.6-1.1-2.6
			c0.1-0.4,0.2-0.6,0.4-0.6c0.1,0,0.2,0.1,0.2,0.3c0.2,0.8,0.5,1.5,0.9,1.9c0.4,0.4,0.9,0.7,1.4,0.7c2.7,0,5.1-1.7,7.4-5
			c1.3-1.9,3-5.3,5.2-10.3l2.6-6.2c-3.2,0-4.7-0.4-4.7-1.1c0-0.3,0.1-0.6,0.5-0.8c0.3-0.2,0.6-0.3,0.8-0.3l4.5,0.1
			c3.1-6.9,5.9-10.3,8.5-10.3c1,0,2,0.5,3,1.4C146.4,299.6,146.6,300,146.6,300.4z"/>
		<path class="st2" d="M140.4,324.1c-1.6,0-2.4-1-2.4-3.1c0-1.7,0.9-4.1,2.8-7.1c1.9-3,3.4-4.5,4.5-4.6c0.3,0,0.7,0.1,1.1,0.4
			c0.4,0.3,0.6,0.5,0.6,0.8c-0.2,0.2-0.3,0.5-0.6,0.7c-0.2,0.3-0.5,0.6-0.7,0.9c-0.3,0.3-0.6,0.8-1,1.4c-0.4,0.6-0.9,1.1-1.3,1.7
			c-2.4,3.1-3.6,5.2-3.6,6.3c0,1.2,0.4,1.7,1.2,1.7c0.7,0,1.6-0.4,2.7-1.1c2.7-1.6,4.8-3.4,6.3-5.4c0.6-0.7,1-1.1,1.2-1.1
			c0.2,0,0.3,0.1,0.3,0.4s-0.4,0.8-1.1,1.5c-0.7,0.8-1.3,1.4-1.7,1.8c-0.4,0.4-0.7,0.7-0.9,0.9c-0.2,0.1-0.5,0.4-0.9,0.8
			c-0.4,0.4-0.8,0.7-1,0.8c-0.2,0.2-0.5,0.4-0.9,0.7c-0.4,0.3-0.8,0.5-1.1,0.7c-0.3,0.1-0.7,0.3-1.1,0.5
			C142.1,324,141.3,324.1,140.4,324.1z M150.3,304.7c0.4,0.3,0.6,0.7,0.6,1.1c0,0.4-0.2,0.8-0.6,1.1c-0.4,0.3-0.8,0.5-1.3,0.5
			s-0.9-0.2-1.3-0.5c-0.4-0.3-0.6-0.7-0.6-1.2c0-0.9,0.6-1.3,1.8-1.3C149.5,304.2,149.9,304.4,150.3,304.7z"/>
		<path class="st2" d="M157,308.6c0.9,0,1.3,0.3,1.3,1c0,0.2,0,0.4-0.1,0.6c-2.8,4-4.6,6.9-5.1,9c7.4-7.4,11.9-11.1,13.4-11.1
			c0.2,0,0.3,0,0.4,0c0.9,0,1.3,0.4,1.3,1.2c0,0.2,0,0.3-0.1,0.5c-0.1,0.2-0.7,1-1.9,2.6c-1.4,1.6-2.6,3.2-3.5,4.7
			c-1,1.5-1.4,2.8-1.4,3.8c0,1,0.2,1.5,0.7,1.5c1.4,0,3.8-1.9,7.3-5.7c0.1-0.1,0.2-0.2,0.3-0.4c0.5-0.6,0.8-0.9,0.9-0.9
			s0.1,0.2,0.1,0.5c0,0.3-0.2,0.7-0.7,1.2c-3.9,4.5-6.7,6.7-8.4,6.7c-1.6,0-2.3-0.9-2.3-2.6c0-1.7,0.6-3.7,1.9-5.9l3-4.9
			c-2.2,1.6-4.1,3.3-5.7,5.2c-1.7,1.9-3.2,3.7-4.6,5.5c-1.4,1.8-2.2,2.7-2.4,2.7c-0.5,0-0.8-0.2-1.1-0.6c-0.3-0.4-0.4-0.9-0.4-1.5
			c0-0.6,0.2-1.4,0.6-2.3c0.4-1,0.9-2.2,1.6-3.6l-2.8,3c-0.7,0.7-1.1,1-1.3,1c-0.2,0-0.3-0.1-0.3-0.3c0-0.2,0.1-0.4,0.4-0.7
			c1.2-1.2,2.2-2.3,3-3.4c0.8-1.1,2.5-3.1,5.1-6.2C156.4,308.8,156.7,308.6,157,308.6z"/>
		<path class="st2" d="M193.6,309.2c3.5-5.8,6-8.6,7.4-8.6c0.2,0,0.5,0.1,0.9,0.2c0.4,0.1,0.6,0.4,0.6,0.6c0,0.2-0.1,0.4-0.2,0.6
			c-2.5,3.1-4.4,5.4-5.6,7c-3.7,4.7-5.8,8.1-6.2,10.2c-0.1,0.4-0.1,0.9-0.1,1.3c0,1.4,0.6,2.1,1.8,2.1c2.3,0,5.4-2.2,9.2-6.5
			c0.3-0.3,0.6-0.5,0.8-0.5c0.2,0,0.3,0,0.3,0.2c0,0.2-0.1,0.3-0.3,0.6c-3.7,4.4-6.9,6.9-9.8,7.4c-0.2,0-0.4,0-0.7,0
			c-1,0-1.7-0.3-2.2-1c-0.5-0.7-0.7-1.4-0.7-2.2c0-0.9,0.2-1.9,0.5-2.9l-3.8,3.8c-1.7,1.6-3.1,2.4-4.1,2.4c-1,0-1.8-0.3-2.5-0.8
			c-0.8-0.6-1.2-1.4-1.2-2.5c0-2.3,1.6-5.1,4.8-8.3c3.2-3.2,6.2-4.8,8.9-4.8c0.9,0,1.5,0.2,1.9,0.7
			C193.3,308.3,193.4,308.6,193.6,309.2z M179.5,321.1c0,1.1,0.4,1.7,1.2,1.7c1.4,0,3.6-1.9,6.8-5.6c0.6-0.7,2.5-3.1,5.7-7.5
			c-0.2-0.4-0.6-0.6-1.1-0.6c-2,0-4.5,1.5-7.7,4.5C181.1,316.6,179.5,319.1,179.5,321.1z"/>
		<path class="st2" d="M202.5,324.2c-0.3,0-0.7,0-0.9-0.1c-2-0.6-3-1.7-3-3.4c0-2.2,1.4-4.8,4.2-7.7c2.8-2.9,5.3-4.4,7.5-4.4
			c0.7,0,1.3,0.2,1.8,0.6c0.5,0.4,0.7,0.9,0.7,1.4c0,1.8-1.3,3.5-4,5.1c-2.7,1.6-4.8,2.4-6.5,2.4c-0.3,0-0.5,0-0.7-0.1
			c-0.5,0.9-0.7,1.8-0.7,2.7c0,1.6,0.8,2.5,2.3,2.5c1.6,0,3.6-1.1,6.1-3.2c1.9-1.6,3.6-3.2,4.9-4.9c0.3-0.4,0.5-0.6,0.7-0.6
			c0.2,0,0.3,0.1,0.3,0.3s-0.1,0.5-0.4,0.8c-1.7,2.2-3.8,4.2-6.2,6C206.2,323.3,204.2,324.2,202.5,324.2z M211.5,310.5
			c0-0.4-0.4-0.6-1.2-0.6s-2,0.6-3.4,1.9c-2,1.6-3.5,3.4-4.7,5.2c0.2,0.1,0.4,0.1,0.6,0.1c1.2,0,2.8-0.6,4.8-1.9
			c2-1.3,3.3-2.7,3.8-4.2C211.5,310.8,211.5,310.7,211.5,310.5z"/>
		<path class="st2" d="M237.5,309.4l0.7-0.1c0.3,0,0.7,0.1,1,0.4c0.3,0.3,0.5,0.5,0.5,0.7c0,0.2-1,1.7-2.9,4.6
			c-2,2.9-2.9,4.9-2.9,6.1c0,0.1,0,0.2,0,0.3c0.2,0.7,0.5,1.1,1,1.1c1.6,0,4.7-2.7,9-8.2c0.1-0.1,0.2-0.2,0.3-0.2
			c0.1,0,0.2,0.1,0.2,0.4c0,0.2-0.1,0.5-0.4,0.9c-4.1,5.4-7.1,8.1-9.3,8.1c-0.3,0-0.6,0-0.8-0.1c-1.4-0.5-2.1-1.6-2.1-3.1
			c0-0.5,0.1-1.1,0.2-1.6l-2.9,2.8c-1.9,1.6-3.2,2.5-4.1,2.5c-0.8,0-1.6-0.3-2.4-0.8c-0.9-0.6-1.3-1.5-1.3-2.5
			c0-2.3,1.6-5.1,4.8-8.3c3.2-3.2,6.2-4.8,8.9-4.8c1,0,1.7,0.4,2.1,1.1c0.1,0.3,0.2,0.5,0.2,0.6
			C237.4,309.3,237.5,309.4,237.5,309.4z M223.3,321.1c0,1.1,0.4,1.7,1.2,1.7c1.8,0,4.3-2,7.5-6l5-6.9c-0.3-0.4-0.7-0.7-1.2-0.7
			c-1.9,0-4.5,1.5-7.7,4.5C224.9,316.6,223.3,319.1,223.3,321.1z"/>
		<path class="st2" d="M258.1,312.2c-3.3,3.9-5,6.8-5,8.5c0,1,0.2,1.5,0.7,1.5c0.7,0,1.8-0.6,3.3-1.9c1.5-1.2,2.8-2.5,3.9-3.9
			c0.3-0.3,0.4-0.4,0.6-0.4c0.1,0,0.2,0.1,0.2,0.3c0,0.2-0.4,0.8-1.1,1.8c-0.7,1-1.8,2.2-3.3,3.5c-1.5,1.3-2.6,2-3.5,2
			c-1.9,0-2.8-1.1-2.8-3.2c0-1.3,0.6-3,1.9-5.2l3-4.9c-2.2,1.6-4.1,3.3-5.7,5.2c-1.7,1.9-3.2,3.7-4.6,5.5c-1.4,1.8-2.2,2.7-2.4,2.7
			c-0.5,0-0.8-0.2-1.1-0.6c-0.3-0.4-0.4-0.8-0.4-1.1c0-0.9,1-3.3,2.9-7c-0.3,0.5-1.6,1.9-3.8,4c-0.4,0.4-0.7,0.6-0.9,0.6
			c-0.2,0-0.3,0-0.3-0.1c0-0.2,0.4-0.6,1.2-1.4c0.8-0.8,2.2-2.5,4.4-5.3c2.2-2.7,3.4-4.1,3.7-4.1c0.9,0,1.3,0.3,1.3,1
			c0,0.2,0,0.4-0.1,0.6c-2.8,4-4.6,6.9-5.1,9c7.4-7.4,11.9-11.1,13.4-11.1c0.2,0,0.3,0,0.4,0c0.9,0,1.3,0.4,1.3,1.2
			c0,0.2,0,0.3-0.1,0.5C259.9,309.8,259.3,310.7,258.1,312.2z M261.1,302.8c0,0,0.1,0,0.1,0c0.1,0,0.1,0.1,0.1,0.2
			c0,0.5-0.6,1.1-1.9,2c-0.4,0.3-0.9,0.4-1.4,0.4c-0.5,0-1.3-0.2-2.3-0.6c-1-0.4-1.8-0.6-2.3-0.6s-1,0.2-1.5,0.6
			c-0.5,0.4-0.8,0.6-1,0.6c0,0,0-0.1,0-0.1c0-0.5,0.7-1.2,2-1.9c0.5-0.3,1-0.5,1.6-0.5s1.3,0.2,2.3,0.5c1,0.3,1.8,0.5,2.5,0.5
			C260,303.8,260.6,303.5,261.1,302.8z"/>
		<path class="st2" d="M272.8,313.5c0,1.1-1.1,3-3.2,5.6c-2.5,3.1-4.6,4.6-6.4,4.6h-0.8c-0.8,0-1.5-0.4-1.9-1.3
			c-0.4-0.6-0.6-1.3-0.6-2c0-1.9,1.4-4.6,4.2-8c2.8-3.4,5-5.2,6.7-5.2c1.6,0,2.4,0.9,2.4,2.6c0,0.4-0.1,1-0.2,1.7
			c0,0.1,0.3,0.1,0.9,0.1c0.6,0,1.4-0.3,2.6-0.9c0,0.5-1.3,1.3-3.8,2.3C272.8,313.2,272.8,313.4,272.8,313.5z M269.7,311.1
			c-1.1,0-2.6,1.3-4.6,3.8c-2,2.5-3,4.4-3,5.6c0,1.2,0.4,1.8,1.1,1.8c1.4,0,3.1-1.2,5.2-3.7c2.1-2.5,3.1-4.2,3.1-5.3
			C271.1,312.9,270.5,312.2,269.7,311.1z"/>
	</g>
	<g class="st0">
		<path class="st3" d="M99,309.2c3.5-5.8,6-8.6,7.4-8.6c0.2,0,0.5,0.1,0.9,0.2c0.4,0.1,0.6,0.4,0.6,0.6c0,0.2-0.1,0.4-0.2,0.6
			c-2.5,3.1-4.4,5.4-5.6,7c-3.7,4.7-5.8,8.1-6.2,10.2c-0.1,0.4-0.1,0.9-0.1,1.3c0,1.4,0.6,2.1,1.8,2.1c2.3,0,5.4-2.2,9.2-6.5
			c0.3-0.3,0.6-0.5,0.8-0.5c0.2,0,0.3,0,0.3,0.2c0,0.2-0.1,0.3-0.3,0.6c-3.7,4.4-6.9,6.9-9.8,7.4c-0.2,0-0.4,0-0.7,0
			c-1,0-1.7-0.3-2.2-1c-0.5-0.7-0.7-1.4-0.7-2.2c0-0.9,0.2-1.9,0.5-2.9l-3.8,3.8c-1.7,1.6-3.1,2.4-4.1,2.4c-1,0-1.8-0.3-2.5-0.8
			c-0.8-0.6-1.2-1.4-1.2-2.5c0-2.3,1.6-5.1,4.8-8.3c3.2-3.2,6.2-4.8,8.9-4.8c0.9,0,1.5,0.2,1.9,0.7C98.7,308.3,98.9,308.6,99,309.2z
			 M85,321.1c0,1.1,0.4,1.7,1.2,1.7c1.4,0,3.6-1.9,6.8-5.6c0.6-0.7,2.5-3.1,5.7-7.5c-0.2-0.4-0.6-0.6-1.1-0.6c-2,0-4.5,1.5-7.7,4.5
			C86.6,316.6,85,319.1,85,321.1z"/>
		<path class="st3" d="M108,324.2c-0.3,0-0.7,0-0.9-0.1c-2-0.6-3-1.7-3-3.4c0-2.2,1.4-4.8,4.2-7.7c2.8-2.9,5.3-4.4,7.5-4.4
			c0.7,0,1.3,0.2,1.8,0.6c0.5,0.4,0.7,0.9,0.7,1.4c0,1.8-1.3,3.5-4,5.1c-2.7,1.6-4.8,2.4-6.5,2.4c-0.3,0-0.5,0-0.7-0.1
			c-0.5,0.9-0.7,1.8-0.7,2.7c0,1.6,0.8,2.5,2.3,2.5c1.6,0,3.6-1.1,6.1-3.2c1.9-1.6,3.6-3.2,4.9-4.9c0.3-0.4,0.5-0.6,0.7-0.6
			c0.2,0,0.3,0.1,0.3,0.3s-0.1,0.5-0.4,0.8c-1.7,2.2-3.8,4.2-6.2,6C111.7,323.3,109.7,324.2,108,324.2z M117,310.5
			c0-0.4-0.4-0.6-1.2-0.6c-0.8,0-2,0.6-3.4,1.9c-2,1.6-3.5,3.4-4.7,5.2c0.2,0.1,0.4,0.1,0.6,0.1c1.2,0,2.8-0.6,4.8-1.9
			c2-1.3,3.3-2.7,3.8-4.2C117,310.8,117,310.7,117,310.5z"/>
		<path class="st3" d="M146.6,300.4c0,1-0.3,1.5-0.9,1.5c-0.2,0-0.3-0.1-0.5-0.4c-0.3-0.5-0.8-0.8-1.4-0.8c-1.5,0-2.8,1-4.1,3.1
			c-0.3,0.4-1,1.9-2.4,4.5h0.6c3.4,0,5.7,0,6.9-0.1c0.1,0,0.2,0.1,0.2,0.2c0,0.3-1.1,0.6-3.4,1c-2.1,0.3-3.9,0.6-5.2,0.9
			c-1,2-2.2,4.4-3.6,7.2c-2.8,5.3-4.7,8.6-5.6,9.9c-2.8,3.9-5.4,5.9-8.1,5.9c-0.9,0-1.7-0.4-2.4-1.2c-0.7-0.8-1-1.6-1.1-2.6
			c0.1-0.4,0.2-0.6,0.4-0.6c0.1,0,0.2,0.1,0.2,0.3c0.2,0.8,0.5,1.5,0.9,1.9c0.4,0.4,0.9,0.7,1.4,0.7c2.7,0,5.1-1.7,7.4-5
			c1.3-1.9,3-5.3,5.2-10.3l2.6-6.2c-3.2,0-4.7-0.4-4.7-1.1c0-0.3,0.1-0.6,0.5-0.8c0.3-0.2,0.6-0.3,0.8-0.3l4.5,0.1
			c3.1-6.9,5.9-10.3,8.5-10.3c1,0,2,0.5,3,1.4C146.4,299.6,146.6,300,146.6,300.4z"/>
		<path class="st3" d="M140.4,324.1c-1.6,0-2.4-1-2.4-3.1c0-1.7,0.9-4.1,2.8-7.1c1.9-3,3.4-4.5,4.5-4.6c0.3,0,0.7,0.1,1.1,0.4
			c0.4,0.3,0.6,0.5,0.6,0.8c-0.2,0.2-0.3,0.5-0.6,0.7c-0.2,0.3-0.5,0.6-0.7,0.9c-0.3,0.3-0.6,0.8-1,1.4c-0.4,0.6-0.9,1.1-1.3,1.7
			c-2.4,3.1-3.6,5.2-3.6,6.3c0,1.2,0.4,1.7,1.2,1.7c0.7,0,1.6-0.4,2.7-1.1c2.7-1.6,4.8-3.4,6.3-5.4c0.6-0.7,1-1.1,1.2-1.1
			c0.2,0,0.3,0.1,0.3,0.4s-0.4,0.8-1.1,1.5c-0.7,0.8-1.3,1.4-1.7,1.8c-0.4,0.4-0.7,0.7-0.9,0.9c-0.2,0.1-0.5,0.4-0.9,0.8
			c-0.4,0.4-0.8,0.7-1,0.8c-0.2,0.2-0.5,0.4-0.9,0.7c-0.4,0.3-0.8,0.5-1.1,0.7c-0.3,0.1-0.7,0.3-1.1,0.5
			C142.1,324,141.3,324.1,140.4,324.1z M150.3,304.7c0.4,0.3,0.6,0.7,0.6,1.1c0,0.4-0.2,0.8-0.6,1.1c-0.4,0.3-0.8,0.5-1.3,0.5
			s-0.9-0.2-1.3-0.5c-0.4-0.3-0.6-0.7-0.6-1.2c0-0.9,0.6-1.3,1.8-1.3C149.5,304.2,149.9,304.4,150.3,304.7z"/>
		<path class="st3" d="M157,308.6c0.9,0,1.3,0.3,1.3,1c0,0.2,0,0.4-0.1,0.6c-2.8,4-4.6,6.9-5.1,9c7.4-7.4,11.9-11.1,13.4-11.1
			c0.2,0,0.3,0,0.4,0c0.9,0,1.3,0.4,1.3,1.2c0,0.2,0,0.3-0.1,0.5c-0.1,0.2-0.7,1-1.9,2.6c-1.4,1.6-2.6,3.2-3.5,4.7
			c-1,1.5-1.4,2.8-1.4,3.8c0,1,0.2,1.5,0.7,1.5c1.4,0,3.8-1.9,7.3-5.7c0.1-0.1,0.2-0.2,0.3-0.4c0.5-0.6,0.8-0.9,0.9-0.9
			s0.1,0.2,0.1,0.5c0,0.3-0.2,0.7-0.7,1.2c-3.9,4.5-6.7,6.7-8.4,6.7c-1.6,0-2.3-0.9-2.3-2.6c0-1.7,0.6-3.7,1.9-5.9l3-4.9
			c-2.2,1.6-4.1,3.3-5.7,5.2c-1.7,1.9-3.2,3.7-4.6,5.5c-1.4,1.8-2.2,2.7-2.4,2.7c-0.5,0-0.8-0.2-1.1-0.6c-0.3-0.4-0.4-0.9-0.4-1.5
			c0-0.6,0.2-1.4,0.6-2.3c0.4-1,0.9-2.2,1.6-3.6l-2.8,3c-0.7,0.7-1.1,1-1.3,1c-0.2,0-0.3-0.1-0.3-0.3c0-0.2,0.1-0.4,0.4-0.7
			c1.2-1.2,2.2-2.3,3-3.4c0.8-1.1,2.5-3.1,5.1-6.2C156.4,308.8,156.7,308.6,157,308.6z"/>
		<path class="st3" d="M193.6,309.2c3.5-5.8,6-8.6,7.4-8.6c0.2,0,0.5,0.1,0.9,0.2c0.4,0.1,0.6,0.4,0.6,0.6c0,0.2-0.1,0.4-0.2,0.6
			c-2.5,3.1-4.4,5.4-5.6,7c-3.7,4.7-5.8,8.1-6.2,10.2c-0.1,0.4-0.1,0.9-0.1,1.3c0,1.4,0.6,2.1,1.8,2.1c2.3,0,5.4-2.2,9.2-6.5
			c0.3-0.3,0.6-0.5,0.8-0.5c0.2,0,0.3,0,0.3,0.2c0,0.2-0.1,0.3-0.3,0.6c-3.7,4.4-6.9,6.9-9.8,7.4c-0.2,0-0.4,0-0.7,0
			c-1,0-1.7-0.3-2.2-1c-0.5-0.7-0.7-1.4-0.7-2.2c0-0.9,0.2-1.9,0.5-2.9l-3.8,3.8c-1.7,1.6-3.1,2.4-4.1,2.4c-1,0-1.8-0.3-2.5-0.8
			c-0.8-0.6-1.2-1.4-1.2-2.5c0-2.3,1.6-5.1,4.8-8.3c3.2-3.2,6.2-4.8,8.9-4.8c0.9,0,1.5,0.2,1.9,0.7
			C193.3,308.3,193.4,308.6,193.6,309.2z M179.5,321.1c0,1.1,0.4,1.7,1.2,1.7c1.4,0,3.6-1.9,6.8-5.6c0.6-0.7,2.5-3.1,5.7-7.5
			c-0.2-0.4-0.6-0.6-1.1-0.6c-2,0-4.5,1.5-7.7,4.5C181.1,316.6,179.5,319.1,179.5,321.1z"/>
		<path class="st3" d="M202.5,324.2c-0.3,0-0.7,0-0.9-0.1c-2-0.6-3-1.7-3-3.4c0-2.2,1.4-4.8,4.2-7.7c2.8-2.9,5.3-4.4,7.5-4.4
			c0.7,0,1.3,0.2,1.8,0.6c0.5,0.4,0.7,0.9,0.7,1.4c0,1.8-1.3,3.5-4,5.1c-2.7,1.6-4.8,2.4-6.5,2.4c-0.3,0-0.5,0-0.7-0.1
			c-0.5,0.9-0.7,1.8-0.7,2.7c0,1.6,0.8,2.5,2.3,2.5c1.6,0,3.6-1.1,6.1-3.2c1.9-1.6,3.6-3.2,4.9-4.9c0.3-0.4,0.5-0.6,0.7-0.6
			c0.2,0,0.3,0.1,0.3,0.3s-0.1,0.5-0.4,0.8c-1.7,2.2-3.8,4.2-6.2,6C206.2,323.3,204.2,324.2,202.5,324.2z M211.5,310.5
			c0-0.4-0.4-0.6-1.2-0.6s-2,0.6-3.4,1.9c-2,1.6-3.5,3.4-4.7,5.2c0.2,0.1,0.4,0.1,0.6,0.1c1.2,0,2.8-0.6,4.8-1.9
			c2-1.3,3.3-2.7,3.8-4.2C211.5,310.8,211.5,310.7,211.5,310.5z"/>
		<path class="st3" d="M237.5,309.4l0.7-0.1c0.3,0,0.7,0.1,1,0.4c0.3,0.3,0.5,0.5,0.5,0.7c0,0.2-1,1.7-2.9,4.6
			c-2,2.9-2.9,4.9-2.9,6.1c0,0.1,0,0.2,0,0.3c0.2,0.7,0.5,1.1,1,1.1c1.6,0,4.7-2.7,9-8.2c0.1-0.1,0.2-0.2,0.3-0.2
			c0.1,0,0.2,0.1,0.2,0.4c0,0.2-0.1,0.5-0.4,0.9c-4.1,5.4-7.1,8.1-9.3,8.1c-0.3,0-0.6,0-0.8-0.1c-1.4-0.5-2.1-1.6-2.1-3.1
			c0-0.5,0.1-1.1,0.2-1.6l-2.9,2.8c-1.9,1.6-3.2,2.5-4.1,2.5c-0.8,0-1.6-0.3-2.4-0.8c-0.9-0.6-1.3-1.5-1.3-2.5
			c0-2.3,1.6-5.1,4.8-8.3c3.2-3.2,6.2-4.8,8.9-4.8c1,0,1.7,0.4,2.1,1.1c0.1,0.3,0.2,0.5,0.2,0.6
			C237.4,309.3,237.5,309.4,237.5,309.4z M223.3,321.1c0,1.1,0.4,1.7,1.2,1.7c1.8,0,4.3-2,7.5-6l5-6.9c-0.3-0.4-0.7-0.7-1.2-0.7
			c-1.9,0-4.5,1.5-7.7,4.5C224.9,316.6,223.3,319.1,223.3,321.1z"/>
		<path class="st3" d="M258.1,312.2c-3.3,3.9-5,6.8-5,8.5c0,1,0.2,1.5,0.7,1.5c0.7,0,1.8-0.6,3.3-1.9c1.5-1.2,2.8-2.5,3.9-3.9
			c0.3-0.3,0.4-0.4,0.6-0.4c0.1,0,0.2,0.1,0.2,0.3c0,0.2-0.4,0.8-1.1,1.8c-0.7,1-1.8,2.2-3.3,3.5c-1.5,1.3-2.6,2-3.5,2
			c-1.9,0-2.8-1.1-2.8-3.2c0-1.3,0.6-3,1.9-5.2l3-4.9c-2.2,1.6-4.1,3.3-5.7,5.2c-1.7,1.9-3.2,3.7-4.6,5.5c-1.4,1.8-2.2,2.7-2.4,2.7
			c-0.5,0-0.8-0.2-1.1-0.6c-0.3-0.4-0.4-0.8-0.4-1.1c0-0.9,1-3.3,2.9-7c-0.3,0.5-1.6,1.9-3.8,4c-0.4,0.4-0.7,0.6-0.9,0.6
			c-0.2,0-0.3,0-0.3-0.1c0-0.2,0.4-0.6,1.2-1.4c0.8-0.8,2.2-2.5,4.4-5.3c2.2-2.7,3.4-4.1,3.7-4.1c0.9,0,1.3,0.3,1.3,1
			c0,0.2,0,0.4-0.1,0.6c-2.8,4-4.6,6.9-5.1,9c7.4-7.4,11.9-11.1,13.4-11.1c0.2,0,0.3,0,0.4,0c0.9,0,1.3,0.4,1.3,1.2
			c0,0.2,0,0.3-0.1,0.5C259.9,309.8,259.3,310.7,258.1,312.2z M261.1,302.8c0,0,0.1,0,0.1,0c0.1,0,0.1,0.1,0.1,0.2
			c0,0.5-0.6,1.1-1.9,2c-0.4,0.3-0.9,0.4-1.4,0.4c-0.5,0-1.3-0.2-2.3-0.6c-1-0.4-1.8-0.6-2.3-0.6s-1,0.2-1.5,0.6
			c-0.5,0.4-0.8,0.6-1,0.6c0,0,0-0.1,0-0.1c0-0.5,0.7-1.2,2-1.9c0.5-0.3,1-0.5,1.6-0.5s1.3,0.2,2.3,0.5c1,0.3,1.8,0.5,2.5,0.5
			C260,303.8,260.6,303.5,261.1,302.8z"/>
		<path class="st3" d="M272.8,313.5c0,1.1-1.1,3-3.2,5.6c-2.5,3.1-4.6,4.6-6.4,4.6h-0.8c-0.8,0-1.5-0.4-1.9-1.3
			c-0.4-0.6-0.6-1.3-0.6-2c0-1.9,1.4-4.6,4.2-8c2.8-3.4,5-5.2,6.7-5.2c1.6,0,2.4,0.9,2.4,2.6c0,0.4-0.1,1-0.2,1.7
			c0,0.1,0.3,0.1,0.9,0.1c0.6,0,1.4-0.3,2.6-0.9c0,0.5-1.3,1.3-3.8,2.3C272.8,313.2,272.8,313.4,272.8,313.5z M269.7,311.1
			c-1.1,0-2.6,1.3-4.6,3.8c-2,2.5-3,4.4-3,5.6c0,1.2,0.4,1.8,1.1,1.8c1.4,0,3.1-1.2,5.2-3.7c2.1-2.5,3.1-4.2,3.1-5.3
			C271.1,312.9,270.5,312.2,269.7,311.1z"/>
	</g>
</g>
</svg>
